<svg width="72" height="72" viewBox="0 0 72 72" fill="none"
  xmlns="http://www.w3.org/2000/svg">
  <circle cx="36" cy="36" r="34" fill="white" stroke="url(#paint0_linear_1048_12396)" stroke-width="4"/>
  <path d="M36 29.25C39.1066 29.25 41.625 26.7316 41.625 23.625C41.625 20.5184 39.1066 18 36 18C32.8934 18 30.375 20.5184 30.375 23.625C30.375 26.7316 32.8934 29.25 36 29.25Z" stroke="black" stroke-width="2.25" stroke-miterlimit="10" stroke-linecap="square"/>
  <path d="M23.625 41.625C26.7316 41.625 29.25 39.1066 29.25 36C29.25 32.8934 26.7316 30.375 23.625 30.375C20.5184 30.375 18 32.8934 18 36C18 39.1066 20.5184 41.625 23.625 41.625Z" stroke="black" stroke-width="2.25" stroke-miterlimit="10" stroke-linecap="square"/>
  <path d="M48.375 41.625C51.4816 41.625 54 39.1066 54 36C54 32.8934 51.4816 30.375 48.375 30.375C45.2684 30.375 42.75 32.8934 42.75 36C42.75 39.1066 45.2684 41.625 48.375 41.625Z" stroke="black" stroke-width="2.25" stroke-miterlimit="10" stroke-linecap="square"/>
  <path d="M36 54C39.1066 54 41.625 51.4816 41.625 48.375C41.625 45.2684 39.1066 42.75 36 42.75C32.8934 42.75 30.375 45.2684 30.375 48.375C30.375 51.4816 32.8934 54 36 54Z" stroke="black" stroke-width="2.25" stroke-miterlimit="10" stroke-linecap="square"/>
  <defs>
    <linearGradient id="paint0_linear_1048_12396" x1="0" y1="0" x2="72" y2="72" gradientUnits="userSpaceOnUse">
      <stop stop-color="#436DCD"/>
      <stop offset="0.484375" stop-color="#93C2FF"/>
      <stop offset="1" stop-color="#EA98A4"/>
    </linearGradient>
  </defs>
</svg>
