<svg width="199" height="68" viewBox="0 0 199 68" fill="none" xmlns="http://www.w3.org/2000/svg">
<g clip-path="url(#clip0_1263_18505)">
<path d="M37.875 45.082C36.3385 46.0065 34.5156 46.4688 32.4062 46.4688C29.5547 46.4688 27.25 45.5443 25.4922 43.6953C23.7474 41.8333 22.875 39.4245 22.875 36.4688C22.875 33.1745 23.819 30.5312 25.707 28.5391C27.5951 26.5339 30.1146 25.5312 33.2656 25.5312C35.0234 25.5312 36.5729 25.8568 37.9141 26.5078V29.7891C36.4297 28.7474 34.8411 28.2266 33.1484 28.2266C31.1042 28.2266 29.4245 28.9622 28.1094 30.4336C26.8073 31.8919 26.1562 33.8125 26.1562 36.1953C26.1562 38.5391 26.7682 40.388 27.9922 41.7422C29.2292 43.0964 30.8828 43.7734 32.9531 43.7734C34.6979 43.7734 36.3385 43.194 37.875 42.0352V45.082Z" fill="#8661C5"/>
<path d="M53.1484 29.2422C52.5885 28.8125 51.7812 28.5977 50.7266 28.5977C49.3594 28.5977 48.2135 29.2422 47.2891 30.5312C46.3776 31.8203 45.9219 33.5781 45.9219 35.8047V46H42.7188V26H45.9219V30.1211H46C46.4557 28.7148 47.1523 27.6211 48.0898 26.8398C49.0273 26.0456 50.0755 25.6484 51.2344 25.6484C52.0677 25.6484 52.7057 25.7396 53.1484 25.9219V29.2422Z" fill="#8661C5"/>
<path d="M72.6992 36.8008H58.5781C58.6302 39.0273 59.2292 40.7461 60.375 41.957C61.5208 43.168 63.0964 43.7734 65.1016 43.7734C67.3542 43.7734 69.4245 43.0312 71.3125 41.5469V44.5547C69.5547 45.8307 67.2305 46.4688 64.3398 46.4688C61.5143 46.4688 59.2943 45.5638 57.6797 43.7539C56.0651 41.931 55.2578 39.3724 55.2578 36.0781C55.2578 32.9661 56.1367 30.4336 57.8945 28.4805C59.6654 26.5143 61.8594 25.5312 64.4766 25.5312C67.0938 25.5312 69.1185 26.3776 70.5508 28.0703C71.9831 29.763 72.6992 32.1133 72.6992 35.1211V36.8008ZM69.418 34.0859C69.4049 32.237 68.9557 30.7982 68.0703 29.7695C67.1979 28.7409 65.9805 28.2266 64.418 28.2266C62.9076 28.2266 61.625 28.7669 60.5703 29.8477C59.5156 30.9284 58.8646 32.3411 58.6172 34.0859H69.418Z" fill="#8661C5"/>
<path d="M91.8789 46H88.6758V42.875H88.5977C87.2044 45.2708 85.1536 46.4688 82.4453 46.4688C80.4531 46.4688 78.8906 45.9414 77.7578 44.8867C76.638 43.832 76.0781 42.4323 76.0781 40.6875C76.0781 36.9505 78.2786 34.776 82.6797 34.1641L88.6758 33.3242C88.6758 29.9258 87.3021 28.2266 84.5547 28.2266C82.1458 28.2266 79.9714 29.0469 78.0312 30.6875V27.4062C79.9974 26.1562 82.263 25.5312 84.8281 25.5312C89.5286 25.5312 91.8789 28.0182 91.8789 32.9922V46ZM88.6758 35.8828L83.8516 36.5469C82.3672 36.7552 81.2474 37.1263 80.4922 37.6602C79.737 38.181 79.3594 39.112 79.3594 40.4531C79.3594 41.4297 79.7044 42.2305 80.3945 42.8555C81.0977 43.4674 82.0286 43.7734 83.1875 43.7734C84.776 43.7734 86.0846 43.2201 87.1133 42.1133C88.1549 40.9935 88.6758 39.5807 88.6758 37.875V35.8828Z" fill="#8661C5"/>
<path d="M107.191 45.8047C106.436 46.2214 105.44 46.4297 104.203 46.4297C100.701 46.4297 98.9492 44.4766 98.9492 40.5703V28.7344H95.5117V26H98.9492V21.1172L102.152 20.082V26H107.191V28.7344H102.152V40.0039C102.152 41.3451 102.38 42.3021 102.836 42.875C103.292 43.4479 104.047 43.7344 105.102 43.7344C105.909 43.7344 106.605 43.513 107.191 43.0703V45.8047Z" fill="#8661C5"/>
<path d="M113.109 20.9219C112.536 20.9219 112.048 20.7266 111.645 20.3359C111.241 19.9453 111.039 19.4505 111.039 18.8516C111.039 18.2526 111.241 17.7578 111.645 17.3672C112.048 16.9635 112.536 16.7617 113.109 16.7617C113.695 16.7617 114.19 16.9635 114.594 17.3672C115.01 17.7578 115.219 18.2526 115.219 18.8516C115.219 19.4245 115.01 19.9128 114.594 20.3164C114.19 20.7201 113.695 20.9219 113.109 20.9219ZM114.672 46H111.469V26H114.672V46Z" fill="#8661C5"/>
<path d="M136.879 26L128.91 46H125.766L118.188 26H121.703L126.781 40.5312C127.159 41.599 127.393 42.5299 127.484 43.3242H127.562C127.693 42.3216 127.901 41.4167 128.188 40.6094L133.5 26H136.879Z" fill="#8661C5"/>
<path d="M141.977 20.9219C141.404 20.9219 140.915 20.7266 140.512 20.3359C140.108 19.9453 139.906 19.4505 139.906 18.8516C139.906 18.2526 140.108 17.7578 140.512 17.3672C140.915 16.9635 141.404 16.7617 141.977 16.7617C142.562 16.7617 143.057 16.9635 143.461 17.3672C143.878 17.7578 144.086 18.2526 144.086 18.8516C144.086 19.4245 143.878 19.9128 143.461 20.3164C143.057 20.7201 142.562 20.9219 141.977 20.9219ZM143.539 46H140.336V26H143.539V46Z" fill="#8661C5"/>
<path d="M159.301 45.8047C158.546 46.2214 157.549 46.4297 156.312 46.4297C152.81 46.4297 151.059 44.4766 151.059 40.5703V28.7344H147.621V26H151.059V21.1172L154.262 20.082V26H159.301V28.7344H154.262V40.0039C154.262 41.3451 154.49 42.3021 154.945 42.875C155.401 43.4479 156.156 43.7344 157.211 43.7344C158.018 43.7344 158.715 43.513 159.301 43.0703V45.8047Z" fill="#8661C5"/>
<path d="M179.496 26L170.297 49.2031C168.656 53.3438 166.352 55.4141 163.383 55.4141C162.549 55.4141 161.853 55.3294 161.293 55.1602V52.2891C161.983 52.5234 162.615 52.6406 163.188 52.6406C164.802 52.6406 166.013 51.6771 166.82 49.75L168.422 45.9609L160.609 26H164.164L169.574 41.3906C169.639 41.5859 169.776 42.0938 169.984 42.9141H170.102C170.167 42.6016 170.297 42.1068 170.492 41.4297L176.176 26H179.496Z" fill="#8661C5"/>
<rect x="8" y="8" width="183" height="52" stroke="#8661C5" stroke-width="3"/>
<rect x="4" y="4" width="8" height="8" fill="white" stroke="#8661C5" stroke-width="3"/>
<rect x="4" y="56" width="8" height="8" fill="white" stroke="#8661C5" stroke-width="3"/>
<rect x="187" y="4" width="8" height="8" fill="white" stroke="#8661C5" stroke-width="3"/>
<rect x="187" y="56" width="8" height="8" fill="white" stroke="#8661C5" stroke-width="3"/>
</g>
<defs>
<clipPath id="clip0_1263_18505">
<rect width="199" height="68" fill="white"/>
</clipPath>
</defs>
</svg>
