<svg width="139" height="36" viewBox="0 0 139 36" fill="none" xmlns="http://www.w3.org/2000/svg">
<g clip-path="url(#clip0_1263_18501)">
<path d="M24.8633 11.293H33.6025V29.3467H40.375V32H23.416V29.3467H30.1885V13.9463H24.8633V11.293ZM30.1885 3.22168H33.6025V7.52637H30.1885V3.22168Z" fill="#C03BC4"/>
<path d="M54.8164 13.8721V3.12891H58.2305V32H54.8164V29.3838C54.2474 30.4105 53.4867 31.196 52.5342 31.7402C51.5941 32.2721 50.5055 32.5381 49.2686 32.5381C46.7575 32.5381 44.7783 31.5671 43.3311 29.625C41.8962 27.6706 41.1787 24.9801 41.1787 21.5537C41.1787 18.1768 41.9023 15.5296 43.3496 13.6123C44.7969 11.6826 46.7699 10.7178 49.2686 10.7178C50.5179 10.7178 51.6188 10.9899 52.5713 11.5342C53.5238 12.0661 54.2721 12.8454 54.8164 13.8721ZM44.7783 21.6279C44.7783 24.2751 45.1989 26.2728 46.04 27.6211C46.8812 28.9694 48.1243 29.6436 49.7695 29.6436C51.4147 29.6436 52.6641 28.9632 53.5176 27.6025C54.3835 26.2419 54.8164 24.2503 54.8164 21.6279C54.8164 18.9932 54.3835 17.0016 53.5176 15.6533C52.6641 14.2926 51.4147 13.6123 49.7695 13.6123C48.1243 13.6123 46.8812 14.2865 46.04 15.6348C45.1989 16.9831 44.7783 18.9808 44.7783 21.6279Z" fill="#C03BC4"/>
<path d="M79.5742 19.9023V21.5723H64.7861V21.6836C64.6872 24.5163 65.2253 26.5511 66.4004 27.7881C67.5879 29.0251 69.2578 29.6436 71.4102 29.6436C72.4987 29.6436 73.6367 29.4704 74.8242 29.124C76.0117 28.7777 77.2796 28.252 78.6279 27.5469V30.9424C77.3291 31.4743 76.0736 31.8701 74.8613 32.1299C73.6615 32.402 72.4987 32.5381 71.373 32.5381C68.1445 32.5381 65.6211 31.5732 63.8027 29.6436C61.9844 27.7015 61.0752 25.0296 61.0752 21.6279C61.0752 18.3128 61.9658 15.6657 63.7471 13.6865C65.5283 11.7074 67.9033 10.7178 70.8721 10.7178C73.5192 10.7178 75.6035 11.6146 77.125 13.4082C78.6589 15.2018 79.4753 17.3665 79.5742 19.9023ZM76.1602 18.9004C76.0117 17.4655 75.486 16.2285 74.583 15.1895C73.6924 14.138 72.4059 13.6123 70.7236 13.6123C69.0785 13.6123 67.724 14.1566 66.6602 15.2451C65.5964 16.3337 65.015 17.5583 64.916 18.9189L76.1602 18.9004Z" fill="#C03BC4"/>
<path d="M91.7148 21.5537H90.583C88.5915 21.5537 87.0885 21.9062 86.0742 22.6113C85.0723 23.304 84.5713 24.3431 84.5713 25.7285C84.5713 26.9779 84.9486 27.9489 85.7031 28.6416C86.4577 29.3343 87.5029 29.6807 88.8389 29.6807C90.7191 29.6807 92.1973 29.0312 93.2734 27.7324C94.3496 26.4212 94.8939 24.6152 94.9062 22.3145V21.5537H91.7148ZM98.3389 20.1436V32H94.9062V28.9199C94.1764 30.1569 93.2549 31.0723 92.1416 31.666C91.0407 32.2474 89.6986 32.5381 88.1152 32.5381C86 32.5381 84.3115 31.9443 83.0498 30.7568C81.7881 29.557 81.1572 27.9551 81.1572 25.9512C81.1572 23.638 81.9303 21.8815 83.4766 20.6816C85.0352 19.4818 87.3174 18.8818 90.3232 18.8818H94.9062V18.3438C94.8939 16.6862 94.4733 15.4863 93.6445 14.7441C92.8158 13.9896 91.4922 13.6123 89.6738 13.6123C88.5111 13.6123 87.3359 13.7793 86.1484 14.1133C84.9609 14.4473 83.8044 14.9359 82.6787 15.5791V12.165C83.9404 11.6826 85.1465 11.3239 86.2969 11.0889C87.4596 10.8415 88.5853 10.7178 89.6738 10.7178C91.3932 10.7178 92.859 10.9714 94.0713 11.4785C95.2959 11.9857 96.2855 12.7464 97.04 13.7607C97.5101 14.3792 97.8441 15.1462 98.042 16.0615C98.2399 16.9645 98.3389 18.3252 98.3389 20.1436Z" fill="#C03BC4"/>
<path d="M116.64 11.9424V15.2822C115.662 14.7132 114.679 14.2865 113.689 14.002C112.7 13.7174 111.692 13.5752 110.665 13.5752C109.119 13.5752 107.962 13.8288 107.195 14.3359C106.441 14.8307 106.063 15.5915 106.063 16.6182C106.063 17.5459 106.348 18.2386 106.917 18.6963C107.486 19.154 108.902 19.5993 111.166 20.0322L112.539 20.292C114.234 20.6136 115.514 21.2568 116.38 22.2217C117.258 23.1865 117.697 24.4421 117.697 25.9883C117.697 28.0417 116.967 29.6497 115.508 30.8125C114.048 31.9629 112.02 32.5381 109.422 32.5381C108.395 32.5381 107.319 32.4268 106.193 32.2041C105.068 31.9938 103.849 31.6722 102.538 31.2393V27.7139C103.812 28.3695 105.031 28.8643 106.193 29.1982C107.356 29.5199 108.457 29.6807 109.496 29.6807C111.005 29.6807 112.174 29.3776 113.003 28.7715C113.832 28.153 114.246 27.2933 114.246 26.1924C114.246 24.609 112.731 23.5143 109.7 22.9082L109.552 22.8711L108.271 22.6113C106.305 22.2279 104.87 21.5846 103.967 20.6816C103.064 19.7663 102.612 18.5231 102.612 16.9521C102.612 14.9606 103.286 13.4268 104.635 12.3506C105.983 11.262 107.907 10.7178 110.405 10.7178C111.519 10.7178 112.589 10.8229 113.615 11.0332C114.642 11.2311 115.65 11.5342 116.64 11.9424Z" fill="#C03BC4"/>
<path d="M16.2002 32.9463V35.6182H15.0127C11.9326 35.6182 9.86686 35.1605 8.81543 34.2451C7.77637 33.3298 7.25684 31.5052 7.25684 28.7715V25.0605C7.25684 23.7122 6.87337 22.5495 6.10645 21.5723C5.35189 20.5951 4.17676 20.1064 2.58105 20.1064H0.317383V17.4531H2.58105C4.3252 17.4531 5.53743 17.0387 6.21777 16.21C6.91048 15.3812 7.25684 14.1628 7.25684 12.5547V7.73047C7.25684 4.99674 7.77637 3.17839 8.81543 2.27539C9.86686 1.36003 11.9326 0.902344 15.0127 0.902344H16.2002V3.55566H14.9014C13.1696 3.55566 12.0378 3.8278 11.5059 4.37207C10.9863 4.90397 10.7266 6.04818 10.7266 7.80469V12.7773C10.7266 14.9544 10.2998 16.4202 9.44629 17.1748C8.59277 17.917 6.92904 18.4551 4.45508 18.7891C6.85482 19.0736 8.5 19.624 9.39062 20.4404C10.2812 21.2445 10.7266 22.7041 10.7266 24.8193V28.6973C10.7266 30.4661 10.9863 31.6165 11.5059 32.1484C12.0378 32.6803 13.1696 32.9463 14.9014 32.9463H16.2002Z" fill="#C03BC4"/>
<path d="M122.8 32.9463V35.6182H123.987C127.067 35.6182 129.133 35.1605 130.185 34.2451C131.224 33.3298 131.743 31.5052 131.743 28.7715V25.0605C131.743 23.7122 132.127 22.5495 132.894 21.5723C133.648 20.5951 134.823 20.1064 136.419 20.1064H138.683V17.4531H136.419C134.675 17.4531 133.463 17.0387 132.782 16.21C132.09 15.3812 131.743 14.1628 131.743 12.5547V7.73047C131.743 4.99674 131.224 3.17839 130.185 2.27539C129.133 1.36003 127.067 0.902344 123.987 0.902344H122.8V3.55566H124.099C125.83 3.55566 126.962 3.8278 127.494 4.37207C128.014 4.90397 128.273 6.04818 128.273 7.80469V12.7773C128.273 14.9544 128.7 16.4202 129.554 17.1748C130.407 17.917 132.071 18.4551 134.545 18.7891C132.145 19.0736 130.5 19.624 129.609 20.4404C128.719 21.2445 128.273 22.7041 128.273 24.8193V28.6973C128.273 30.4661 128.014 31.6165 127.494 32.1484C126.962 32.6803 125.83 32.9463 124.099 32.9463H122.8Z" fill="#C03BC4"/>
</g>
<defs>
<clipPath id="clip0_1263_18501">
<rect width="139" height="36" fill="white"/>
</clipPath>
</defs>
</svg>
