<svg width="225" height="40" viewBox="0 0 225 40" fill="none" xmlns="http://www.w3.org/2000/svg">
<g clip-path="url(#clip0_1263_18515)">
<path d="M5.10938 1.52344L3 10.2344H0.0703125L2.80469 1.52344H5.10938Z" fill="#FF5C39"/>
<path d="M12.0625 4.92188C11.4896 4.92188 11.0013 4.72656 10.5977 4.33594C10.194 3.94531 9.99219 3.45052 9.99219 2.85156C9.99219 2.2526 10.194 1.75781 10.5977 1.36719C11.0013 0.963542 11.4896 0.761719 12.0625 0.761719C12.6484 0.761719 13.1432 0.963542 13.5469 1.36719C13.9635 1.75781 14.1719 2.2526 14.1719 2.85156C14.1719 3.42448 13.9635 3.91276 13.5469 4.31641C13.1432 4.72005 12.6484 4.92188 12.0625 4.92188ZM13.625 30H10.4219V10H13.625V30Z" fill="#FF5C39"/>
<path d="M48.5078 30H45.3047V18.5156C45.3047 16.3021 44.9596 14.7005 44.2695 13.7109C43.5924 12.7214 42.4466 12.2266 40.832 12.2266C39.4648 12.2266 38.2995 12.8516 37.3359 14.1016C36.3854 15.3516 35.9102 16.849 35.9102 18.5938V30H32.707V18.125C32.707 14.1927 31.1901 12.2266 28.1562 12.2266C26.75 12.2266 25.5911 12.819 24.6797 14.0039C23.7682 15.1758 23.3125 16.7057 23.3125 18.5938V30H20.1094V10H23.3125V13.1641H23.3906C24.8099 10.7422 26.8802 9.53125 29.6016 9.53125C30.9688 9.53125 32.1602 9.91536 33.1758 10.6836C34.1914 11.4388 34.888 12.4349 35.2656 13.6719C36.75 10.9115 38.9635 9.53125 41.9062 9.53125C46.3073 9.53125 48.5078 12.2461 48.5078 17.6758V30Z" fill="#FF5C39"/>
<path d="M68.8789 30H65.6758V26.875H65.5977C64.2044 29.2708 62.1536 30.4688 59.4453 30.4688C57.4531 30.4688 55.8906 29.9414 54.7578 28.8867C53.638 27.832 53.0781 26.4323 53.0781 24.6875C53.0781 20.9505 55.2786 18.776 59.6797 18.1641L65.6758 17.3242C65.6758 13.9258 64.3021 12.2266 61.5547 12.2266C59.1458 12.2266 56.9714 13.0469 55.0312 14.6875V11.4062C56.9974 10.1562 59.263 9.53125 61.8281 9.53125C66.5286 9.53125 68.8789 12.0182 68.8789 16.9922V30ZM65.6758 19.8828L60.8516 20.5469C59.3672 20.7552 58.2474 21.1263 57.4922 21.6602C56.737 22.181 56.3594 23.112 56.3594 24.4531C56.3594 25.4297 56.7044 26.2305 57.3945 26.8555C58.0977 27.4674 59.0286 27.7734 60.1875 27.7734C61.776 27.7734 63.0846 27.2201 64.1133 26.1133C65.1549 24.9935 65.6758 23.5807 65.6758 21.875V19.8828Z" fill="#FF5C39"/>
<path d="M91.9844 28.3984C91.9844 35.7422 88.4688 39.4141 81.4375 39.4141C78.9635 39.4141 76.8021 38.9453 74.9531 38.0078V34.8047C77.2057 36.0547 79.3542 36.6797 81.3984 36.6797C86.3203 36.6797 88.7812 34.0625 88.7812 28.8281V26.6406H88.7031C87.1797 29.1927 84.888 30.4688 81.8281 30.4688C79.3411 30.4688 77.3359 29.5833 75.8125 27.8125C74.3021 26.0286 73.5469 23.6393 73.5469 20.6445C73.5469 17.2461 74.3607 14.5443 75.9883 12.5391C77.6289 10.5339 79.8685 9.53125 82.707 9.53125C85.4023 9.53125 87.401 10.612 88.7031 12.7734H88.7812V10H91.9844V28.3984ZM88.7812 20.957V18.0078C88.7812 16.4193 88.2409 15.0586 87.1602 13.9258C86.0924 12.793 84.7578 12.2266 83.1562 12.2266C81.1771 12.2266 79.6276 12.9492 78.5078 14.3945C77.388 15.8268 76.8281 17.8385 76.8281 20.4297C76.8281 22.6562 77.362 24.4401 78.4297 25.7812C79.5104 27.1094 80.9362 27.7734 82.707 27.7734C84.5039 27.7734 85.9622 27.1354 87.082 25.8594C88.2148 24.5833 88.7812 22.9492 88.7812 20.957Z" fill="#FF5C39"/>
<path d="M100.109 4.92188C99.5365 4.92188 99.0482 4.72656 98.6445 4.33594C98.2409 3.94531 98.0391 3.45052 98.0391 2.85156C98.0391 2.2526 98.2409 1.75781 98.6445 1.36719C99.0482 0.963542 99.5365 0.761719 100.109 0.761719C100.695 0.761719 101.19 0.963542 101.594 1.36719C102.01 1.75781 102.219 2.2526 102.219 2.85156C102.219 3.42448 102.01 3.91276 101.594 4.31641C101.19 4.72005 100.695 4.92188 100.109 4.92188ZM101.672 30H98.4688V10H101.672V30Z" fill="#FF5C39"/>
<path d="M124.758 30H121.555V18.5938C121.555 14.349 120.005 12.2266 116.906 12.2266C115.305 12.2266 113.977 12.832 112.922 14.043C111.88 15.2409 111.359 16.7578 111.359 18.5938V30H108.156V10H111.359V13.3203H111.438C112.948 10.7943 115.135 9.53125 118 9.53125C120.188 9.53125 121.861 10.2409 123.02 11.6602C124.178 13.0664 124.758 15.1042 124.758 17.7734V30Z" fill="#FF5C39"/>
<path d="M145.129 30H141.926V26.875H141.848C140.454 29.2708 138.404 30.4688 135.695 30.4688C133.703 30.4688 132.141 29.9414 131.008 28.8867C129.888 27.832 129.328 26.4323 129.328 24.6875C129.328 20.9505 131.529 18.776 135.93 18.1641L141.926 17.3242C141.926 13.9258 140.552 12.2266 137.805 12.2266C135.396 12.2266 133.221 13.0469 131.281 14.6875V11.4062C133.247 10.1562 135.513 9.53125 138.078 9.53125C142.779 9.53125 145.129 12.0182 145.129 16.9922V30ZM141.926 19.8828L137.102 20.5469C135.617 20.7552 134.497 21.1263 133.742 21.6602C132.987 22.181 132.609 23.112 132.609 24.4531C132.609 25.4297 132.954 26.2305 133.645 26.8555C134.348 27.4674 135.279 27.7734 136.438 27.7734C138.026 27.7734 139.335 27.2201 140.363 26.1133C141.405 24.9935 141.926 23.5807 141.926 21.875V19.8828Z" fill="#FF5C39"/>
<path d="M160.441 29.8047C159.686 30.2214 158.69 30.4297 157.453 30.4297C153.951 30.4297 152.199 28.4766 152.199 24.5703V12.7344H148.762V10H152.199V5.11719L155.402 4.08203V10H160.441V12.7344H155.402V24.0039C155.402 25.3451 155.63 26.3021 156.086 26.875C156.542 27.4479 157.297 27.7344 158.352 27.7344C159.159 27.7344 159.855 27.513 160.441 27.0703V29.8047Z" fill="#FF5C39"/>
<path d="M166.359 4.92188C165.786 4.92188 165.298 4.72656 164.895 4.33594C164.491 3.94531 164.289 3.45052 164.289 2.85156C164.289 2.2526 164.491 1.75781 164.895 1.36719C165.298 0.963542 165.786 0.761719 166.359 0.761719C166.945 0.761719 167.44 0.963542 167.844 1.36719C168.26 1.75781 168.469 2.2526 168.469 2.85156C168.469 3.42448 168.26 3.91276 167.844 4.31641C167.44 4.72005 166.945 4.92188 166.359 4.92188ZM167.922 30H164.719V10H167.922V30Z" fill="#FF5C39"/>
<path d="M182.766 30.4688C179.81 30.4688 177.447 29.5378 175.676 27.6758C173.918 25.8008 173.039 23.3203 173.039 20.2344C173.039 16.875 173.957 14.2513 175.793 12.3633C177.629 10.4753 180.109 9.53125 183.234 9.53125C186.216 9.53125 188.54 10.4492 190.207 12.2852C191.887 14.1211 192.727 16.6667 192.727 19.9219C192.727 23.112 191.822 25.6706 190.012 27.5977C188.215 29.5117 185.799 30.4688 182.766 30.4688ZM183 12.2266C180.943 12.2266 179.315 12.9297 178.117 14.3359C176.919 15.7292 176.32 17.6562 176.32 20.1172C176.32 22.487 176.926 24.3555 178.137 25.7227C179.348 27.0898 180.969 27.7734 183 27.7734C185.07 27.7734 186.659 27.1029 187.766 25.7617C188.885 24.4206 189.445 22.513 189.445 20.0391C189.445 17.5391 188.885 15.612 187.766 14.2578C186.659 12.9036 185.07 12.2266 183 12.2266Z" fill="#FF5C39"/>
<path d="M214.445 30H211.242V18.5938C211.242 14.349 209.693 12.2266 206.594 12.2266C204.992 12.2266 203.664 12.832 202.609 14.043C201.568 15.2409 201.047 16.7578 201.047 18.5938V30H197.844V10H201.047V13.3203H201.125C202.635 10.7943 204.823 9.53125 207.688 9.53125C209.875 9.53125 211.548 10.2409 212.707 11.6602C213.866 13.0664 214.445 15.1042 214.445 17.7734V30Z" fill="#FF5C39"/>
<path d="M224.445 1.52344L221.711 10.2344H219.406L221.574 1.52344H224.445Z" fill="#FF5C39"/>
</g>
<defs>
<clipPath id="clip0_1263_18515">
<rect width="225" height="40" fill="white"/>
</clipPath>
</defs>
</svg>
