<svg width="215" height="30" viewBox="0 0 215 30" fill="none" xmlns="http://www.w3.org/2000/svg">
<g clip-path="url(#clip0_1263_18517)">
<path d="M1.86328 8.29297H10.6025V26.3467H17.375V29H0.416016V26.3467H7.18848V10.9463H1.86328V8.29297ZM7.18848 0.22168H10.6025V4.52637H7.18848V0.22168Z" fill="#018DF8"/>
<path d="M35.3975 16.123V29H31.9648V16.123C31.9648 14.2552 31.637 12.8822 30.9814 12.0039C30.3258 11.1257 29.2992 10.6865 27.9014 10.6865C26.3057 10.6865 25.0749 11.2555 24.209 12.3936C23.3555 13.5192 22.9287 15.1396 22.9287 17.2549V29H19.5146V8.21875H22.9287V11.3359C23.5348 10.1484 24.3574 9.25163 25.3965 8.64551C26.4355 8.02702 27.6663 7.71777 29.0889 7.71777C31.2041 7.71777 32.7812 8.41667 33.8203 9.81445C34.8717 11.1999 35.3975 13.3027 35.3975 16.123Z" fill="#018DF8"/>
<path d="M43.0107 21.5039H49.542V29H43.0107V21.5039Z" fill="#018DF8"/>
<path d="M75.1904 16.123V29H71.7578V16.123C71.7578 14.2552 71.43 12.8822 70.7744 12.0039C70.1188 11.1257 69.0921 10.6865 67.6943 10.6865C66.0986 10.6865 64.8678 11.2555 64.002 12.3936C63.1484 13.5192 62.7217 15.1396 62.7217 17.2549V29H59.3076V8.21875H62.7217V11.3359C63.3278 10.1484 64.1504 9.25163 65.1895 8.64551C66.2285 8.02702 67.4593 7.71777 68.8818 7.71777C70.9971 7.71777 72.5742 8.41667 73.6133 9.81445C74.6647 11.1999 75.1904 13.3027 75.1904 16.123Z" fill="#018DF8"/>
<path d="M87.0156 10.6123C85.2839 10.6123 83.9727 11.2865 83.082 12.6348C82.1914 13.9831 81.7461 15.9808 81.7461 18.6279C81.7461 21.2627 82.1914 23.2604 83.082 24.6211C83.9727 25.9694 85.2839 26.6436 87.0156 26.6436C88.7598 26.6436 90.0771 25.9694 90.9678 24.6211C91.8584 23.2604 92.3037 21.2627 92.3037 18.6279C92.3037 15.9808 91.8584 13.9831 90.9678 12.6348C90.0771 11.2865 88.7598 10.6123 87.0156 10.6123ZM87.0156 7.71777C89.8978 7.71777 92.0996 8.65169 93.6211 10.5195C95.1549 12.3874 95.9219 15.0902 95.9219 18.6279C95.9219 22.1781 95.1611 24.887 93.6396 26.7549C92.1182 28.6104 89.9102 29.5381 87.0156 29.5381C84.1335 29.5381 81.9316 28.6104 80.4102 26.7549C78.8887 24.887 78.1279 22.1781 78.1279 18.6279C78.1279 15.0902 78.8887 12.3874 80.4102 10.5195C81.9316 8.65169 84.1335 7.71777 87.0156 7.71777Z" fill="#018DF8"/>
<path d="M97.3379 8.21875H100.882L106.912 25.6602L112.961 8.21875H116.505L109.12 29H104.723L97.3379 8.21875Z" fill="#018DF8"/>
<path d="M128.404 18.5537H127.272C125.281 18.5537 123.778 18.9062 122.764 19.6113C121.762 20.304 121.261 21.3431 121.261 22.7285C121.261 23.9779 121.638 24.9489 122.393 25.6416C123.147 26.3343 124.192 26.6807 125.528 26.6807C127.409 26.6807 128.887 26.0312 129.963 24.7324C131.039 23.4212 131.583 21.6152 131.596 19.3145V18.5537H128.404ZM135.028 17.1436V29H131.596V25.9199C130.866 27.1569 129.944 28.0723 128.831 28.666C127.73 29.2474 126.388 29.5381 124.805 29.5381C122.689 29.5381 121.001 28.9443 119.739 27.7568C118.478 26.557 117.847 24.9551 117.847 22.9512C117.847 20.638 118.62 18.8815 120.166 17.6816C121.725 16.4818 124.007 15.8818 127.013 15.8818H131.596V15.3438C131.583 13.6862 131.163 12.4863 130.334 11.7441C129.505 10.9896 128.182 10.6123 126.363 10.6123C125.201 10.6123 124.025 10.7793 122.838 11.1133C121.65 11.4473 120.494 11.9359 119.368 12.5791V9.16504C120.63 8.68262 121.836 8.32389 122.986 8.08887C124.149 7.84147 125.275 7.71777 126.363 7.71777C128.083 7.71777 129.549 7.97135 130.761 8.47852C131.985 8.98568 132.975 9.74642 133.729 10.7607C134.2 11.3792 134.534 12.1462 134.731 13.0615C134.929 13.9645 135.028 15.3252 135.028 17.1436Z" fill="#018DF8"/>
<path d="M146.668 2.31836V8.21875H154.424V10.8721H146.668V22.1533C146.668 23.6872 146.959 24.7572 147.54 25.3633C148.121 25.9694 149.136 26.2725 150.583 26.2725H154.424V29H150.249C147.688 29 145.882 28.4867 144.831 27.46C143.78 26.4333 143.254 24.6644 143.254 22.1533V10.8721H137.706V8.21875H143.254V2.31836H146.668Z" fill="#018DF8"/>
<path d="M161.035 8.29297H169.774V26.3467H176.547V29H159.588V26.3467H166.36V10.9463H161.035V8.29297ZM166.36 0.22168H169.774V4.52637H166.36V0.22168Z" fill="#018DF8"/>
<path d="M186.498 10.6123C184.766 10.6123 183.455 11.2865 182.564 12.6348C181.674 13.9831 181.229 15.9808 181.229 18.6279C181.229 21.2627 181.674 23.2604 182.564 24.6211C183.455 25.9694 184.766 26.6436 186.498 26.6436C188.242 26.6436 189.56 25.9694 190.45 24.6211C191.341 23.2604 191.786 21.2627 191.786 18.6279C191.786 15.9808 191.341 13.9831 190.45 12.6348C189.56 11.2865 188.242 10.6123 186.498 10.6123ZM186.498 7.71777C189.38 7.71777 191.582 8.65169 193.104 10.5195C194.637 12.3874 195.404 15.0902 195.404 18.6279C195.404 22.1781 194.644 24.887 193.122 26.7549C191.601 28.6104 189.393 29.5381 186.498 29.5381C183.616 29.5381 181.414 28.6104 179.893 26.7549C178.371 24.887 177.61 22.1781 177.61 18.6279C177.61 15.0902 178.371 12.3874 179.893 10.5195C181.414 8.65169 183.616 7.71777 186.498 7.71777Z" fill="#018DF8"/>
<path d="M214.466 16.123V29H211.033V16.123C211.033 14.2552 210.705 12.8822 210.05 12.0039C209.394 11.1257 208.368 10.6865 206.97 10.6865C205.374 10.6865 204.143 11.2555 203.277 12.3936C202.424 13.5192 201.997 15.1396 201.997 17.2549V29H198.583V8.21875H201.997V11.3359C202.603 10.1484 203.426 9.25163 204.465 8.64551C205.504 8.02702 206.735 7.71777 208.157 7.71777C210.272 7.71777 211.85 8.41667 212.889 9.81445C213.94 11.1999 214.466 13.3027 214.466 16.123Z" fill="#018DF8"/>
</g>
<defs>
<clipPath id="clip0_1263_18517">
<rect width="215" height="30" fill="white"/>
</clipPath>
</defs>
</svg>
