<svg width="119" height="36" viewBox="0 0 119 36" fill="none" xmlns="http://www.w3.org/2000/svg">
<g clip-path="url(#clip0_1263_18513)">
<path d="M19.2598 18.8877C19.2598 17.292 18.8639 16.0179 18.0723 15.0654C17.2806 14.1006 16.223 13.6182 14.8994 13.6182C13.5758 13.6182 12.512 14.1006 11.708 15.0654C10.9163 16.0179 10.5205 17.292 10.5205 18.8877C10.5205 20.4958 10.9163 21.7822 11.708 22.7471C12.512 23.6995 13.5758 24.1758 14.8994 24.1758C16.223 24.1758 17.2806 23.6995 18.0723 22.7471C18.8639 21.7822 19.2598 20.4958 19.2598 18.8877ZM21.8574 26.4951H19.1855V24.4355C18.7279 25.2148 18.0908 25.8148 17.2744 26.2354C16.4704 26.6559 15.5612 26.8662 14.5469 26.8662C12.5553 26.8662 10.904 26.1178 9.59277 24.6211C8.29395 23.1243 7.64453 21.2132 7.64453 18.8877C7.64453 16.5622 8.29395 14.651 9.59277 13.1543C10.904 11.6576 12.5553 10.9092 14.5469 10.9092C15.5365 10.9092 16.4456 11.1257 17.2744 11.5586C18.1032 11.9915 18.7402 12.5853 19.1855 13.3398V12.1709C19.1855 10.2412 18.6413 8.6888 17.5527 7.51367C16.4642 6.33854 15.0231 5.75098 13.2295 5.75098C10.1865 5.75098 7.76204 6.93848 5.95605 9.31348C4.16243 11.6761 3.26562 14.8799 3.26562 18.9248C3.26562 22.9945 4.28613 26.2354 6.32715 28.6475C8.36816 31.0596 11.1637 32.2718 14.7139 32.2842C15.3818 32.3831 16.3219 32.4326 17.5342 32.4326C18.7464 32.4326 19.8288 32.4079 20.7812 32.3584V35.0303C19.9772 35.0921 18.9382 35.123 17.6641 35.123C16.4023 35.1354 15.4189 35.0859 14.7139 34.9746C10.4215 34.9375 6.97656 33.4779 4.37891 30.5957C1.79362 27.7135 0.500977 23.8232 0.500977 18.9248C0.500977 14.1006 1.66374 10.2598 3.98926 7.40234C6.31478 4.54492 9.43197 3.11621 13.3408 3.11621C15.9261 3.11621 17.9919 3.9388 19.5381 5.58398C21.0843 7.22917 21.8574 9.43717 21.8574 12.208V26.4951Z" fill="#49C5B1"/>
<path d="M31.2891 2.31836V8.21875H39.0449V10.8721H31.2891V22.1533C31.2891 23.6872 31.5798 24.7572 32.1611 25.3633C32.7425 25.9694 33.7568 26.2725 35.2041 26.2725H39.0449V29H34.8701C32.3096 29 30.5036 28.4867 29.4521 27.46C28.4007 26.4333 27.875 24.6644 27.875 22.1533V10.8721H22.3271V8.21875H27.875V2.31836H31.2891Z" fill="#49C5B1"/>
<path d="M52.8184 18.5537H51.6865C49.695 18.5537 48.1921 18.9062 47.1777 19.6113C46.1758 20.304 45.6748 21.3431 45.6748 22.7285C45.6748 23.9779 46.0521 24.9489 46.8066 25.6416C47.5612 26.3343 48.6064 26.6807 49.9424 26.6807C51.8226 26.6807 53.3008 26.0312 54.377 24.7324C55.4531 23.4212 55.9974 21.6152 56.0098 19.3145V18.5537H52.8184ZM59.4424 17.1436V29H56.0098V25.9199C55.2799 27.1569 54.3584 28.0723 53.2451 28.666C52.1442 29.2474 50.8021 29.5381 49.2188 29.5381C47.1035 29.5381 45.415 28.9443 44.1533 27.7568C42.8916 26.557 42.2607 24.9551 42.2607 22.9512C42.2607 20.638 43.0339 18.8815 44.5801 17.6816C46.1387 16.4818 48.4209 15.8818 51.4268 15.8818H56.0098V15.3438C55.9974 13.6862 55.5768 12.4863 54.748 11.7441C53.9193 10.9896 52.5957 10.6123 50.7773 10.6123C49.6146 10.6123 48.4395 10.7793 47.252 11.1133C46.0645 11.4473 44.9079 11.9359 43.7822 12.5791V9.16504C45.0439 8.68262 46.25 8.32389 47.4004 8.08887C48.5632 7.84147 49.6888 7.71777 50.7773 7.71777C52.4967 7.71777 53.9626 7.97135 55.1748 8.47852C56.3994 8.98568 57.389 9.74642 58.1436 10.7607C58.6136 11.3792 58.9476 12.1462 59.1455 13.0615C59.3434 13.9645 59.4424 15.3252 59.4424 17.1436Z" fill="#49C5B1"/>
<path d="M77.7432 8.94238V12.2822C76.766 11.7132 75.7826 11.2865 74.793 11.002C73.8034 10.7174 72.7952 10.5752 71.7686 10.5752C70.2223 10.5752 69.0658 10.8288 68.2988 11.3359C67.5443 11.8307 67.167 12.5915 67.167 13.6182C67.167 14.5459 67.4515 15.2386 68.0205 15.6963C68.5895 16.154 70.0059 16.5993 72.2695 17.0322L73.6426 17.292C75.3372 17.6136 76.6175 18.2568 77.4834 19.2217C78.3617 20.1865 78.8008 21.4421 78.8008 22.9883C78.8008 25.0417 78.071 26.6497 76.6113 27.8125C75.1517 28.9629 73.123 29.5381 70.5254 29.5381C69.4987 29.5381 68.4225 29.4268 67.2969 29.2041C66.1712 28.9938 64.9528 28.6722 63.6416 28.2393V24.7139C64.9157 25.3695 66.1341 25.8643 67.2969 26.1982C68.4596 26.5199 69.5605 26.6807 70.5996 26.6807C72.1087 26.6807 73.2777 26.3776 74.1064 25.7715C74.9352 25.153 75.3496 24.2933 75.3496 23.1924C75.3496 21.609 73.8343 20.5143 70.8037 19.9082L70.6553 19.8711L69.375 19.6113C67.4082 19.2279 65.9733 18.5846 65.0703 17.6816C64.1673 16.7663 63.7158 15.5231 63.7158 13.9521C63.7158 11.9606 64.39 10.4268 65.7383 9.35059C67.0866 8.26204 69.0101 7.71777 71.5088 7.71777C72.6221 7.71777 73.6921 7.82292 74.7188 8.0332C75.7454 8.23112 76.7536 8.53418 77.7432 8.94238Z" fill="#49C5B1"/>
<path d="M83.9648 0.128906H87.4902V16.8467L96.4521 8.21875H100.608L92.4258 16.0488L101.889 29H97.7139L90.0322 18.2754L87.4902 20.6689V29H83.9648V0.128906Z" fill="#49C5B1"/>
<path d="M117.536 8.94238V12.2822C116.559 11.7132 115.576 11.2865 114.586 11.002C113.596 10.7174 112.588 10.5752 111.562 10.5752C110.015 10.5752 108.859 10.8288 108.092 11.3359C107.337 11.8307 106.96 12.5915 106.96 13.6182C106.96 14.5459 107.244 15.2386 107.813 15.6963C108.382 16.154 109.799 16.5993 112.062 17.0322L113.436 17.292C115.13 17.6136 116.41 18.2568 117.276 19.2217C118.155 20.1865 118.594 21.4421 118.594 22.9883C118.594 25.0417 117.864 26.6497 116.404 27.8125C114.945 28.9629 112.916 29.5381 110.318 29.5381C109.292 29.5381 108.215 29.4268 107.09 29.2041C105.964 28.9938 104.746 28.6722 103.435 28.2393V24.7139C104.709 25.3695 105.927 25.8643 107.09 26.1982C108.253 26.5199 109.354 26.6807 110.393 26.6807C111.902 26.6807 113.071 26.3776 113.899 25.7715C114.728 25.153 115.143 24.2933 115.143 23.1924C115.143 21.609 113.627 20.5143 110.597 19.9082L110.448 19.8711L109.168 19.6113C107.201 19.2279 105.766 18.5846 104.863 17.6816C103.96 16.7663 103.509 15.5231 103.509 13.9521C103.509 11.9606 104.183 10.4268 105.531 9.35059C106.88 8.26204 108.803 7.71777 111.302 7.71777C112.415 7.71777 113.485 7.82292 114.512 8.0332C115.538 8.23112 116.547 8.53418 117.536 8.94238Z" fill="#49C5B1"/>
</g>
<defs>
<clipPath id="clip0_1263_18513">
<rect width="119" height="36" fill="white"/>
</clipPath>
</defs>
</svg>
