<svg width="134" height="61" viewBox="0 0 134 61" fill="none" xmlns="http://www.w3.org/2000/svg">
<g clip-path="url(#clip0_1263_18495)">
<rect opacity="0.2" x="20" y="11" width="114" height="50" fill="#FFB3BB"/>
<path fill-rule="evenodd" clip-rule="evenodd" d="M20 9.42857V61H14V18.0726C12.7751 18.5772 11.4222 18.8571 10 18.8571C4.47715 18.8571 0 14.6358 0 9.42857C0 4.22132 4.47715 0 10 0C15.3705 0 19.7522 3.99166 19.9899 9H20V9.42857Z" fill="#FFB3BB"/>
<path d="M54.4375 30L48.4414 50H45.1211L41 35.6836C40.8438 35.1367 40.7396 34.5182 40.6875 33.8281H40.6094C40.5703 34.2969 40.4336 34.9023 40.1992 35.6445L35.7266 50H32.5234L26.4688 30H29.8281L33.9688 45.0391C34.099 45.4948 34.1901 46.0938 34.2422 46.8359H34.3984C34.4375 46.263 34.5547 45.651 34.75 45L39.3594 30H42.2891L46.4297 45.0781C46.5599 45.5599 46.6576 46.1589 46.7227 46.875H46.8789C46.9049 46.3672 47.0156 45.7682 47.2109 45.0781L51.2734 30H54.4375ZM66.5078 50.4688C63.5521 50.4688 61.1888 49.5378 59.418 47.6758C57.6602 45.8008 56.7812 43.3203 56.7812 40.2344C56.7812 36.875 57.6992 34.2513 59.5352 32.3633C61.3711 30.4753 63.8516 29.5312 66.9766 29.5312C69.9583 29.5312 72.2826 30.4492 73.9492 32.2852C75.6289 34.1211 76.4688 36.6667 76.4688 39.9219C76.4688 43.112 75.5638 45.6706 73.7539 47.5977C71.957 49.5117 69.5417 50.4688 66.5078 50.4688ZM66.7422 32.2266C64.6849 32.2266 63.0573 32.9297 61.8594 34.3359C60.6615 35.7292 60.0625 37.6562 60.0625 40.1172C60.0625 42.487 60.668 44.3555 61.8789 45.7227C63.0898 47.0898 64.7109 47.7734 66.7422 47.7734C68.8125 47.7734 70.401 47.1029 71.5078 45.7617C72.6276 44.4206 73.1875 42.513 73.1875 40.0391C73.1875 37.5391 72.6276 35.612 71.5078 34.2578C70.401 32.9036 68.8125 32.2266 66.7422 32.2266ZM92.0156 33.2422C91.4557 32.8125 90.6484 32.5977 89.5938 32.5977C88.2266 32.5977 87.0807 33.2422 86.1562 34.5312C85.2448 35.8203 84.7891 37.5781 84.7891 39.8047V50H81.5859V30H84.7891V34.1211H84.8672C85.3229 32.7148 86.0195 31.6211 86.957 30.8398C87.8945 30.0456 88.9427 29.6484 90.1016 29.6484C90.9349 29.6484 91.5729 29.7396 92.0156 29.9219V33.2422ZM112.094 50H107.602L98.7734 40.3906H98.6953V50H95.4922V20.3906H98.6953V39.1602H98.7734L107.172 30H111.371L102.094 39.6484L112.094 50Z" fill="#F4364C"/>
</g>
<defs>
<clipPath id="clip0_1263_18495">
<rect width="134" height="61" fill="white"/>
</clipPath>
</defs>
</svg>
